HIERARCHY
ROOT Hips
{
  OFFSET 0.000000 0.000000 0.000000
  CHANNELS 6 Xposition Yposition Zposition Zrotation Yrotation Xrotation
  JOINT Spine
  {
    OFFSET -0.059818 2.086548 0.021003
    CHANNELS 3 Zrotation Yrotation Xrotation
    JOINT Spine1
    {
      OFFSET 0.047353 2.084555 -0.017952
      CHANNELS 3 Zrotation Yrotation Xrotation
      JOINT Spine2
      {
        OFFSET 0.073283 2.082630 -0.028953
        CHANNELS 3 Zrotation Yrotation Xrotation
        JOINT Neck
        {
          OFFSET -0.100379 1.437811 0.030840
          CHANNELS 3 Zrotation Yrotation Xrotation
          JOINT Head
          {
            OFFSET 0.027441 1.456332 -0.073612
            CHANNELS 3 Zrotation Yrotation Xrotation
            End Site
            {
              OFFSET 0 0 0
            }
          }
        }
        JOINT LeftShoulder
        {
          OFFSET 2.750607 0.743894 0.252268
          CHANNELS 3 Zrotation Yrotation Xrotation
          JOINT LeftArm
          {
            OFFSET 4.369010 -0.000000 0.000000
            CHANNELS 3 Zrotation Yrotation Xrotation
            JOINT LeftForeArm
            {
              OFFSET 3.217370 -0.000000 -0.000000
              CHANNELS 3 Zrotation Yrotation Xrotation
              JOINT LeftHand
              {
                OFFSET 0.564313 -0.000000 0.000000
                CHANNELS 3 Zrotation Yrotation Xrotation
                JOINT LeftHandIndex1
                {
                  OFFSET 0.454963 -0.000000 0.000000
                  CHANNELS 3 Zrotation Yrotation Xrotation
                  End Site
                  {
                    OFFSET 0 0 0
                  }
                }
              }
            }
          }
        }
        JOINT RightShoulder
        {
          OFFSET -2.973790 0.790938 0.483767
          CHANNELS 3 Zrotation Yrotation Xrotation
          JOINT RightArm
          {
            OFFSET -4.341180 -0.000000 -0.000000
            CHANNELS 3 Zrotation Yrotation Xrotation
            JOINT RightForeArm
            {
              OFFSET -3.095310 -0.000000 0.000000
              CHANNELS 3 Zrotation Yrotation Xrotation
              JOINT RightHand
              {
                OFFSET -0.597446 -0.000000 0.000000
                CHANNELS 3 Zrotation Yrotation Xrotation
                JOINT RightHandIndex1
                {
                  OFFSET -0.481677 -0.000000 0.000000
                  CHANNELS 3 Zrotation Yrotation Xrotation
                  End Site
                  {
                    OFFSET 0 0 0
                  }
                }
              }
            }
          }
        }
      }
    }
  }
  JOINT LeftUpLeg
  {
    OFFSET 2.243231 -6.163230 0.000000
    CHANNELS 3 Zrotation Yrotation Xrotation
    JOINT LeftLeg
    {
      OFFSET 2.326769 -6.392750 0.000000
      CHANNELS 3 Zrotation Yrotation Xrotation
      JOINT LeftFoot
      {
        OFFSET 0.186861 -0.513396 1.959728
        CHANNELS 3 Zrotation Yrotation Xrotation
        JOINT LeftToeBase
        {
          OFFSET 0.000000 -0.000000 1.020330
          CHANNELS 3 Zrotation Yrotation Xrotation
          End Site
          {
            OFFSET 0 0 0
          }
        }
      }
    }
  }
  JOINT RightUpLeg
  {
    OFFSET -2.199780 -6.043852 0.000000
    CHANNELS 3 Zrotation Yrotation Xrotation
    JOINT RightLeg
    {
      OFFSET -2.293798 -6.302164 0.000000
      CHANNELS 3 Zrotation Yrotation Xrotation
      JOINT RightFoot
      {
        OFFSET -0.246243 -0.676548 1.948545
        CHANNELS 3 Zrotation Yrotation Xrotation
        JOINT RightToeBase
        {
          OFFSET -0.000000 -0.000000 1.032670
          CHANNELS 3 Zrotation Yrotation Xrotation
          End Site
          {
            OFFSET 0 0 0
          }
        }
      }
    }
  }
}
MOTION
Frames: 8
Frame Time: 0.00833333
12.430500 13.906700 -17.287900 -366.209000 -5.529980 29.202500 9.302270 4.285200 -44.916000 0.000000 0.000000 56.530500 15.486300 0.000000 -29.850800 0.000000 0.000000 -52.599900 -4.328410 -5.367260 -21.967600 0.000000 0.000000 54.041700 -7.420120 0.000000 -5.536060 0.000000 0.000000 -18.532800 2.674970 3.280240 7.831950 4.484620 4.564350 3.730830 2.751130 2.257390 -0.678687 -8.655450 -5.574320 -5.997460 1.773800 -3.575770 4.950030 0.000000 0.000000 0.000000 -5.759150 23.966900 -31.486800 0.000000 0.000000 42.120200 57.899800 0.000000 -26.469600 0.000000 0.000000 7.125020 0.000000 0.000000 0.000000 351.854000 -21.376800 -17.659000 0.000000 0.000000 37.534500 26.217300 0.000000 -33.715800 0.000000 0.000000 7.125020
12.035700 14.085900 -17.172000 -365.370000 -0.090997 30.747500 12.194300 1.075010 -46.189800 0.000000 0.000000 51.095500 16.145100 0.000000 -25.210500 0.000000 0.000000 -52.986800 -3.614940 -4.242060 -22.200600 0.000000 0.000000 49.837600 -9.076540 0.000000 -8.845650 0.000000 0.000000 -16.882000 2.197410 3.226990 9.483840 4.405570 4.520970 4.113450 2.856270 2.229090 -1.220610 -9.264380 -6.269120 -6.164590 2.280510 -3.996080 4.764420 -0.000000 -0.000000 0.000000 -6.382450 25.044600 -32.896400 0.000000 0.000000 41.327000 58.993900 0.000000 -26.664200 0.000000 0.000000 7.125020 -0.000000 -0.000000 0.000000 349.818000 -22.416300 -15.154500 0.000000 0.000000 37.802800 26.578800 0.000000 -33.404100 0.000000 0.000000 7.125020
11.614000 14.354700 -17.019700 -364.130000 5.619620 32.790000 13.567700 -0.396513 -48.718300 0.000000 0.000000 46.411500 17.507400 0.000000 -18.263100 0.000000 0.000000 -54.790300 -3.314050 -2.438550 -22.386600 0.000000 0.000000 44.975400 -11.610800 0.000000 -12.485000 0.000000 0.000000 -16.815300 2.051700 2.935650 11.165600 4.326110 4.187680 4.418400 2.814310 2.060540 -1.815740 -10.036900 -6.967020 -6.421930 2.742540 -4.411460 4.667220 0.000000 0.000000 0.000000 -6.727810 25.580000 -34.296400 0.000000 0.000000 41.095300 59.871200 0.000000 -27.006000 0.000000 0.000000 7.125020 0.000000 0.000000 0.000000 347.946000 -23.233600 -12.440800 0.000000 0.000000 38.188700 26.334800 0.000000 -33.019700 0.000000 0.000000 7.125020
11.180100 14.606000 -16.855300 -362.542000 11.375500 35.329300 15.897800 -3.286180 -51.622400 0.000000 0.000000 41.987000 19.095700 0.000000 -12.106500 0.000000 0.000000 -52.515100 -3.826550 0.351086 -23.081500 0.000000 0.000000 40.483800 -14.661900 0.000000 -15.303700 0.000000 0.000000 -25.956900 2.465170 2.642750 12.774900 4.113550 3.911390 4.655920 2.330300 1.924790 -2.389180 -10.299800 -7.733270 -6.628280 3.029870 -4.876010 4.415230 0.000000 -0.000000 0.000000 -6.598690 26.176300 -34.638500 0.000000 0.000000 41.029400 60.415700 0.000000 -27.198300 0.000000 0.000000 7.125020 0.000000 -0.000000 0.000000 346.751000 -23.737600 -10.538100 0.000000 0.000000 38.875800 25.655300 0.000000 -32.711000 0.000000 0.000000 7.125020
10.747500 14.847700 -16.659000 -360.805000 16.759200 38.397000 19.349700 -7.554740 -55.259600 0.000000 0.000000 39.054600 24.754400 0.000000 -6.097320 0.000000 0.000000 -47.815100 -5.110870 3.742920 -24.537500 0.000000 0.000000 36.497500 -18.365400 0.000000 -14.811700 0.000000 0.000000 -37.383700 3.334810 2.470560 14.092200 3.791330 3.854920 4.742570 1.460360 1.897550 -2.927460 -10.079500 -8.539730 -6.730480 3.146330 -5.386340 4.100910 -0.000000 -0.000000 0.000000 -6.197450 26.892400 -34.008500 0.000000 0.000000 41.039600 60.659500 0.000000 -27.353600 0.000000 0.000000 7.125020 -0.000000 -0.000000 0.000000 346.032000 -24.510200 -9.315000 0.000000 0.000000 39.476400 25.681700 0.000000 -32.584900 0.000000 0.000000 7.125020
10.320400 14.976300 -16.457600 -359.046000 21.758900 41.923100 20.130000 -8.441600 -58.384600 0.000000 0.000000 37.175000 27.695000 0.000000 -5.607830 0.000000 0.000000 -44.305900 -6.762760 6.177630 -27.174000 0.000000 0.000000 34.121200 -21.367100 0.000000 -16.496500 0.000000 0.000000 -37.106600 3.629420 1.698660 14.872300 4.481980 2.983960 4.774130 2.139190 1.469750 -3.331640 -12.376600 -8.678630 -6.912410 3.788050 -5.387580 3.934800 0.000000 -0.000000 0.000000 -6.871790 26.410000 -37.114300 0.000000 0.000000 42.067800 60.783500 0.000000 -27.629600 0.000000 0.000000 7.125020 0.000000 -0.000000 0.000000 346.241000 -21.951700 -4.398400 0.000000 0.000000 38.992900 25.646600 0.000000 -32.864800 0.000000 0.000000 7.125020
9.898480 15.029000 -16.244300 -357.292000 26.533700 45.450500 17.043700 -5.894500 -60.448300 0.000000 0.000000 36.577200 29.189200 0.000000 -5.786420 0.000000 0.000000 -43.546700 -8.012170 7.235000 -30.693000 0.000000 0.000000 33.657900 -22.853300 0.000000 -23.611500 0.000000 0.000000 -27.605700 4.160980 0.973706 15.571200 5.307610 2.243880 4.606890 2.831980 1.107110 -3.886400 -14.589700 -8.702570 -6.286850 4.446500 -5.365810 3.585730 0.000000 0.000000 0.000000 -7.639750 24.916500 -39.949900 0.000000 0.000000 43.366200 61.023800 0.000000 -27.857000 0.000000 0.000000 7.125020 0.000000 0.000000 0.000000 345.576000 -22.069100 -0.562589 0.000000 0.000000 40.184400 25.047000 0.000000 -32.839700 0.000000 0.000000 7.125020
9.476690 15.000400 -16.026000 -355.552000 31.113500 48.669100 11.707500 -1.963820 -61.071000 0.000000 0.000000 36.788400 28.005000 0.000000 -5.865970 0.000000 0.000000 -45.675900 -8.486090 6.853000 -35.049500 0.000000 0.000000 35.336400 -19.076500 0.000000 -25.468500 0.000000 0.000000 -22.528300 5.084760 0.917825 16.339100 5.743310 2.435580 4.471710 2.728770 1.196410 -4.427200 -14.281800 -9.081430 -5.153670 4.502750 -5.694250 3.017170 0.000000 0.000000 0.000000 -7.846000 24.763600 -39.520600 0.000000 0.000000 43.955900 60.865000 0.000000 -27.792700 0.000000 0.000000 7.125020 0.000000 0.000000 0.000000 346.109000 -21.414900 1.045810 0.000000 0.000000 41.011600 24.557200 0.000000 -33.347600 0.000000 0.000000 7.125020
